# xmcd
#
# Track frame offsets:
#	150
#	18917
#	41003
#	61830
#	78950
#	95492
#	117284
#	134186
#	155286
#	181132
#	201628
#	223414
#	239488
#	253529
#	272541
#	305777
#
# Disc length: 4092 seconds
#
# Revision: 1
# Processed by: cddbd v1.5.2PL0 Copyright (c) Steve Scherf et al.
# Submitted via: audiograbber 1.83.01
#
DISCID=eb0ffa10
DTITLE=Chartbuster - CB8520 10
DYEAR=2013
DGENRE=Karaoke
TTITLE0=Madonna - Papa Dont Preach
TTITLE1=Celine Dion - Because You Loved Me
TTITLE2=Oleta Adams - Get here
TTITLE3=Bette Midler - The Rose
TTITLE4=Bonnie Raitt - Something To Talk About
TTITLE5=Bette Milder - The Wind Beneath My Wings
TTITLE6=Vanessa Williams - Save The Best For Last
TTITLE7=Whitney Houston - I Will Always Love You
TTITLE8=Jewel - Foolish Games
TTITLE9=Sarah McLachlan - Angel
TTITLE10=Sheryl Crow - All I Wanna Do
TTITLE11=Sheryl Crow - Soak Up The Sun
TTITLE12=The Spice Girls - Wannabe
TTITLE13=Brandy and Monica - The Boy Is Mine
TTITLE14=Whitney Houston - The Greatest Love Of All
TTITLE15=CB8520 10 - Data Track
EXTD=
EXTT0=
EXTT1=
EXTT2=
EXTT3=
EXTT4=
EXTT5=
EXTT6=
EXTT7=
EXTT8=
EXTT9=
EXTT10=
EXTT11=
EXTT12=
EXTT13=
EXTT14=
EXTT15=
PLAYORDER=
